<?xml version="1.0" encoding="UTF-8"?>
<svg id="Layer_2" data-name="Layer 2" xmlns="http://www.w3.org/2000/svg" viewBox="0 0 280 90">
  <defs>
    <style>
      .cls-1 {
        fill: #0D4C92;
      }
    </style>
  </defs>
  <g id="Layer_1-2" data-name="Layer 1">
    <g>
      <path class="cls-1" d="m221.2,32.24h-8.05v14.88h8.05c6.04,0,9.09-2.81,9.09-7.44s-3.05-7.44-9.09-7.44Z"/>
      <path class="cls-1" d="m165.75,32.3h-9.03v26.48h9.03c8.48,0,14.03-5.06,14.03-13.24s-5.55-13.24-14.03-13.24Z"/>
      <path class="cls-1" d="m0,0v90h280V0H0Zm69.37,32.24h-13.67v34.65h-9.88v-34.65h-13.67v-8.05h37.21v8.05Zm42.64,34.65h-31.3V24.19h9.88v34.65h21.41v8.05Zm15.73.49c-3.29,0-5.92-2.5-5.92-5.98s2.62-5.86,5.92-5.86,5.92,2.32,5.92,5.86-2.62,5.98-5.92,5.98Zm0-21.9c-3.29,0-5.92-2.5-5.92-5.98s2.62-5.86,5.92-5.86,5.92,2.32,5.92,5.86-2.62,5.98-5.92,5.98Zm38.49,21.41h-19.4V24.19h19.4c13.97,0,23.55,8.42,23.55,21.35s-9.58,21.35-23.55,21.35Zm64.23,0l-8.24-11.9h-9.09v11.9h-9.88V24.19h18.48c11.41,0,18.54,5.92,18.54,15.5,0,6.41-3.23,11.1-8.78,13.48l9.58,13.73h-10.62Z"/>
    </g>
  </g>
</svg>
